# xmcd
#
# Track frame offsets:
#	150
#	20093
#	39443
#	61201
#	80194
#	93628
#	114916
#	128512
#
# Disc length: 2006 seconds
#
# Revision: 0
# Processed by: cddbd v1.5.2PL0 Copyright (c) Steve Scherf et al.
# Submitted via: EZCDAudioConverter 1.3.4.1
#
DISCID=6207d408
DTITLE=Stephanie Mills - Tantalizingly Hot
DYEAR=2009
DGENRE=Soul
TTITLE0=Last Night
TTITLE1=Still Lovin' You
TTITLE2=Keep Away Girls
TTITLE3=You Can't Run From My Love
TTITLE4=True Love Don't Come Easy
TTITLE5='Ole Love
TTITLE6=Your Love Is Always New
TTITLE7=I Can't Give Back The Love I Feel For You
EXTD=
EXTT0=
EXTT1=
EXTT2=
EXTT3=
EXTT4=
EXTT5=
EXTT6=
EXTT7=
PLAYORDER=
